{
  "accessors": [
    {
      "bufferView": 2,
      "componentType": 5126,
      "count": 15109,
      "max": [
        1.250971794128418,
        0.3310549259185791,
        0.6405790448188782
      ],
      "min": [
        -0.22668364644050598,
        -0.33105477690696716,
        -2.904745101928711
      ],
      "type": "VEC3"
    },
    {
      "bufferView": 2,
      "byteOffset": 181308,
      "componentType": 5126,
      "count": 15109,
      "max": [
        0.9999997019767761,
        0.9999996423721313,
        0.9999995231628418
      ],
      "min": [
        -0.9999977946281433,
        -0.9999996423721313,
        -0.9998885989189148
      ],
      "type": "VEC3"
    },
    {
      "bufferView": 1,
      "componentType": 5126,
      "count": 15109,
      "max": [
        1.000000238418579,
        0.8999999761581421
      ],
      "min": [
        0.0,
        -1.1920928955078125e-07
      ],
      "type": "VEC2"
    },
    {
      "bufferView": 0,
      "componentType": 5125,
      "count": 86880,
      "type": "SCALAR"
    },
    {
      "bufferView": 2,
      "byteOffset": 362616,
      "componentType": 5126,
      "count": 122,
      "max": [
        0.3270549476146698,
        -0.13245633244514465,
        -0.04975755512714386
      ],
      "min": [
        -0.13208982348442078,
        -0.3606352210044861,
        -0.5188959836959839
      ],
      "type": "VEC3"
    },
    {
      "bufferView": 2,
      "byteOffset": 364080,
      "componentType": 5126,
      "count": 122,
      "max": [
        0.9741248488426208,
        0.16636498272418976,
        0.9911351203918457
      ],
      "min": [
        -0.92259281873703,
        -0.9592185020446777,
        -0.9876886606216431
      ],
      "type": "VEC3"
    },
    {
      "bufferView": 1,
      "byteOffset": 120872,
      "componentType": 5126,
      "count": 122,
      "max": [
        1.000000238418579,
        0.3999999761581421
      ],
      "min": [
        0.0,
        0.1499999761581421
      ],
      "type": "VEC2"
    },
    {
      "bufferView": 0,
      "byteOffset": 347520,
      "componentType": 5125,
      "count": 516,
      "type": "SCALAR"
    },
    {
      "bufferView": 2,
      "byteOffset": 365544,
      "componentType": 5126,
      "count": 41,
      "max": [
        0.17326118052005768,
        -0.355737566947937,
        -0.2027149647474289
      ],
      "min": [
        0.03916475549340248,
        -0.37146666646003723,
        -0.33682891726493835
      ],
      "type": "VEC3"
    },
    {
      "bufferView": 2,
      "byteOffset": 366036,
      "componentType": 5126,
      "count": 41,
      "max": [
        0.3831917643547058,
        -0.9096931219100952,
        0.38825416564941406
      ],
      "min": [
        -0.19828960299491882,
        -0.9943982362747192,
        -0.24155986309051514
      ],
      "type": "VEC3"
    },
    {
      "bufferView": 1,
      "byteOffset": 121848,
      "componentType": 5126,
      "count": 41,
      "max": [
        1.000000238418579,
        0.09999996423721313
      ],
      "min": [
        0.0,
        -1.1920928955078125e-07
      ],
      "type": "VEC2"
    },
    {
      "bufferView": 0,
      "byteOffset": 349584,
      "componentType": 5125,
      "count": 60,
      "type": "SCALAR"
    },
    {
      "bufferView": 2,
      "byteOffset": 366528,
      "componentType": 5126,
      "count": 42,
      "max": [
        0.2025969922542572,
        -0.3400179445743561,
        -0.1734418272972107
      ],
      "min": [
        0.008015446364879608,
        -0.36994603276252747,
        -0.3680488169193268
      ],
      "type": "VEC3"
    },
    {
      "bufferView": 2,
      "byteOffset": 367032,
      "componentType": 5126,
      "count": 42,
      "max": [
        0.44564059376716614,
        -0.8788917064666748,
        0.45058396458625793
      ],
      "min": [
        -0.31246647238731384,
        -0.9792376756668091,
        -0.30762237310409546
      ],
      "type": "VEC3"
    },
    {
      "bufferView": 1,
      "byteOffset": 122176,
      "componentType": 5126,
      "count": 42,
      "max": [
        1.000000238418579,
        0.1499999761581421
      ],
      "min": [
        0.0,
        0.09999996423721313
      ],
      "type": "VEC2"
    },
    {
      "bufferView": 0,
      "byteOffset": 349824,
      "componentType": 5125,
      "count": 120,
      "type": "SCALAR"
    },
    {
      "bufferView": 2,
      "byteOffset": 367536,
      "componentType": 5126,
      "count": 2527,
      "max": [
        0.3837606906890869,
        -0.04468256235122681,
        -0.033186137676239014
      ],
      "min": [
        -0.14126820862293243,
        -0.3482342064380646,
        -0.7825406789779663
      ],
      "type": "VEC3"
    },
    {
      "bufferView": 2,
      "byteOffset": 397860,
      "componentType": 5126,
      "count": 2527,
      "max": [
        0.9990848302841187,
        0.9998955130577087,
        0.9999223947525024
      ],
      "min": [
        -0.9986404180526733,
        -0.9999651312828064,
        -0.9979531764984131
      ],
      "type": "VEC3"
    },
    {
      "bufferView": 1,
      "byteOffset": 122512,
      "componentType": 5126,
      "count": 2527,
      "max": [
        1.000000238418579,
        1.0
      ],
      "min": [
        -0.027777791023254395,
        0.0
      ],
      "type": "VEC2"
    },
    {
      "bufferView": 0,
      "byteOffset": 350304,
      "componentType": 5125,
      "count": 13704,
      "type": "SCALAR"
    }
  ],
  "asset": {
    "extras": {
      "author": "binrong (https://sketchfab.com/binrong)",
      "license": "CC-BY-4.0 (http://creativecommons.org/licenses/by/4.0/)",
      "source": "https://sketchfab.com/3d-models/day21-alien-78d2edde6e114a0dac36d6be50c570d8",
      "title": "DAY21: ALIEN"
    },
    "generator": "Sketchfab-12.67.0",
    "version": "2.0"
  },
  "bufferViews": [
    {
      "buffer": 0,
      "byteLength": 405120,
      "name": "floatBufferViews",
      "target": 34963
    },
    {
      "buffer": 0,
      "byteLength": 142728,
      "byteOffset": 405120,
      "byteStride": 8,
      "name": "floatBufferViews",
      "target": 34962
    },
    {
      "buffer": 0,
      "byteLength": 428184,
      "byteOffset": 547848,
      "byteStride": 12,
      "name": "floatBufferViews",
      "target": 34962
    }
  ],
  "buffers": [
    {
      "byteLength": 976032,
      "uri": "scene.bin"
    }
  ],
  "materials": [
    {
      "doubleSided": true,
      "name": "skin",
      "pbrMetallicRoughness": {
        "baseColorFactor": [
          0.0789900005,
          0.5329208617,
          0.3803713246,
          1.0
        ],
        "metallicFactor": 0.0,
        "roughnessFactor": 0.4
      }
    },
    {
      "doubleSided": true,
      "name": "material",
      "pbrMetallicRoughness": {
        "metallicFactor": 0.0,
        "roughnessFactor": 0.0
      }
    },
    {
      "doubleSided": true,
      "name": "black",
      "pbrMetallicRoughness": {
        "baseColorFactor": [
          0.0,
          0.0,
          0.0,
          1.0
        ],
        "metallicFactor": 0.0,
        "roughnessFactor": 0.0
      }
    },
    {
      "doubleSided": true,
      "name": "eyeGreen",
      "pbrMetallicRoughness": {
        "baseColorFactor": [
          0.0705882,
          0.588235,
          0.501961,
          1.0
        ],
        "metallicFactor": 0.0,
        "roughnessFactor": 0.0
      }
    },
    {
      "doubleSided": true,
      "name": "PURPLE",
      "pbrMetallicRoughness": {
        "baseColorFactor": [
          0.2440822679,
          0.1530380883,
          0.6128662499,
          1.0
        ],
        "metallicFactor": 0.0,
        "roughnessFactor": 0.4
      }
    }
  ],
  "meshes": [
    {
      "name": "alien_skin_0",
      "primitives": [
        {
          "attributes": {
            "NORMAL": 1,
            "POSITION": 0,
            "TEXCOORD_0": 2
          },
          "indices": 3,
          "material": 0,
          "mode": 4
        }
      ]
    },
    {
      "name": "alien_eye_0",
      "primitives": [
        {
          "attributes": {
            "NORMAL": 5,
            "POSITION": 4,
            "TEXCOORD_0": 6
          },
          "indices": 7,
          "material": 1,
          "mode": 4
        }
      ]
    },
    {
      "name": "alien_black_0",
      "primitives": [
        {
          "attributes": {
            "NORMAL": 9,
            "POSITION": 8,
            "TEXCOORD_0": 10
          },
          "indices": 11,
          "material": 2,
          "mode": 4
        }
      ]
    },
    {
      "name": "alien_eyeGreen_0",
      "primitives": [
        {
          "attributes": {
            "NORMAL": 13,
            "POSITION": 12,
            "TEXCOORD_0": 14
          },
          "indices": 15,
          "material": 3,
          "mode": 4
        }
      ]
    },
    {
      "name": "alien_PURPLE_0",
      "primitives": [
        {
          "attributes": {
            "NORMAL": 17,
            "POSITION": 16,
            "TEXCOORD_0": 18
          },
          "indices": 19,
          "material": 4,
          "mode": 4
        }
      ]
    }
  ],
  "nodes": [
    {
      "children": [
        1
      ],
      "matrix": [
        0.9910008311271667,
        -0.1338557004928589,
        -2.972193613290017e-17,
        0.0,
        0.0,
        -2.220446049250313e-16,
        1.0,
        0.0,
        -0.1338557004928589,
        -0.9910008311271667,
        -2.200463880280094e-16,
        0.0,
        -4.304731369018555,
        -34.80995178222656,
        -0.40394532680512246,
        1.0
      ],
      "name": "Sketchfab_model"
    },
    {
      "children": [
        2
      ],
      "matrix": [
        1.0,
        0.0,
        0.0,
        0.0,
        0.0,
        -1.0,
        0.0,
        0.0,
        0.0,
        0.0,
        -1.0,
        0.0,
        0.0,
        0.0,
        0.0,
        1.0
      ],
      "name": "5ae602c813b447ad86878641cff61f8b.fbx"
    },
    {
      "children": [
        3
      ],
      "name": "RootNode"
    },
    {
      "children": [
        4,
        5,
        6,
        7,
        8
      ],
      "matrix": [
        9.115345628950687,
        2.716584691092581e-07,
        -4.102254740478855,
        0.0,
        -2.979010389481122e-07,
        9.995900154113766,
        1.6536829624997463e-23,
        0.0,
        4.102254740478853,
        1.2225671829220235e-07,
        9.11534562895069,
        0.0,
        1.766094446182251,
        1.5763475054304642e-16,
        29.877809524536133,
        1.0
      ],
      "name": "alien"
    },
    {
      "mesh": 0,
      "name": "alien_skin_0"
    },
    {
      "mesh": 1,
      "name": "alien_eye_0"
    },
    {
      "mesh": 2,
      "name": "alien_black_0"
    },
    {
      "mesh": 3,
      "name": "alien_eyeGreen_0"
    },
    {
      "mesh": 4,
      "name": "alien_PURPLE_0"
    }
  ],
  "scene": 0,
  "scenes": [
    {
      "name": "Sketchfab_Scene",
      "nodes": [
        0
      ]
    }
  ]
}
